<svg width="19" height="21" viewBox="0 0 19 21" fill="none" xmlns="http://www.w3.org/2000/svg">
<path d="M0.505 10.375C0.505 8.39167 0.901667 6.665 1.695 5.195C2.48833 3.70167 3.585 2.54667 4.985 1.73C6.40833 0.913332 8.03 0.504999 9.85 0.504999C12.2067 0.504999 14.1433 1.07667 15.66 2.22C17.2 3.36333 18.215 4.95 18.705 6.98H15.275C14.9483 5.81333 14.3067 4.89167 13.35 4.215C12.4167 3.53833 11.25 3.2 9.85 3.2C8.03 3.2 6.56 3.83 5.44 5.09C4.32 6.32667 3.76 8.08833 3.76 10.375C3.76 12.685 4.32 14.47 5.44 15.73C6.56 16.99 8.03 17.62 9.85 17.62C11.25 17.62 12.4167 17.2933 13.35 16.64C14.2833 15.9867 14.925 15.0533 15.275 13.84H18.705C18.1917 15.8 17.165 17.375 15.625 18.565C14.085 19.7317 12.16 20.315 9.85 20.315C8.03 20.315 6.40833 19.9067 4.985 19.09C3.585 18.2733 2.48833 17.1183 1.695 15.625C0.901667 14.1317 0.505 12.3817 0.505 10.375Z" fill="#FFFFFF"/>
</svg>
