<svg width="25" height="26" viewBox="0 0 25 26" fill="none" xmlns="http://www.w3.org/2000/svg">
<path d="M0.47 5.4C0.47 3.81333 0.948333 2.55333 1.905 1.62C2.86167 0.663332 4.08667 0.184998 5.58 0.184998C7.07333 0.184998 8.29833 0.663332 9.255 1.62C10.2117 2.55333 10.69 3.81333 10.69 5.4C10.69 7.01 10.2117 8.29333 9.255 9.25C8.29833 10.1833 7.07333 10.65 5.58 10.65C4.08667 10.65 2.86167 10.1833 1.905 9.25C0.948333 8.29333 0.47 7.01 0.47 5.4ZM20.91 0.57L6.735 25H3.585L17.76 0.57H20.91ZM5.58 2.145C4.78667 2.145 4.15667 2.425 3.69 2.985C3.24667 3.52167 3.025 4.32667 3.025 5.4C3.025 6.47333 3.24667 7.29 3.69 7.85C4.15667 8.41 4.78667 8.69 5.58 8.69C6.37333 8.69 7.00333 8.41 7.47 7.85C7.93667 7.26667 8.17 6.45 8.17 5.4C8.17 4.32667 7.93667 3.52167 7.47 2.985C7.00333 2.425 6.37333 2.145 5.58 2.145ZM13.875 20.17C13.875 18.56 14.3533 17.2883 15.31 16.355C16.2667 15.3983 17.4917 14.92 18.985 14.92C20.4783 14.92 21.6917 15.3983 22.625 16.355C23.5817 17.2883 24.06 18.56 24.06 20.17C24.06 21.7567 23.5817 23.0283 22.625 23.985C21.6917 24.9417 20.4783 25.42 18.985 25.42C17.4917 25.42 16.2667 24.9533 15.31 24.02C14.3533 23.0633 13.875 21.78 13.875 20.17ZM18.95 16.915C18.1567 16.915 17.5267 17.195 17.06 17.755C16.5933 18.2917 16.36 19.0967 16.36 20.17C16.36 21.22 16.5933 22.025 17.06 22.585C17.5267 23.1217 18.1567 23.39 18.95 23.39C19.7433 23.39 20.3733 23.1217 20.84 22.585C21.3067 22.025 21.54 21.22 21.54 20.17C21.54 19.0967 21.3067 18.2917 20.84 17.755C20.3733 17.195 19.7433 16.915 18.95 16.915Z" fill="#FFFFFF"/>
</svg>
